<svg xmlns="http://www.w3.org/2000/svg" viewBox="0 0 64 64" fill="none">
  <defs>
    <linearGradient id="a" x1="12" y1="14" x2="52" y2="52" gradientUnits="userSpaceOnUse">
      <stop stop-color="#3ee0c2"/>
      <stop offset="1" stop-color="#6ea8ff"/>
    </linearGradient>
    <linearGradient id="b" x1="18" y1="18" x2="46" y2="44" gradientUnits="userSpaceOnUse">
      <stop stop-color="#10263a"/>
      <stop offset="1" stop-color="#071018"/>
    </linearGradient>
    <linearGradient id="c" x1="28" y1="36" x2="50" y2="56" gradientUnits="userSpaceOnUse">
      <stop stop-color="#f0c2a4"/>
      <stop offset="1" stop-color="#d99672"/>
    </linearGradient>
  </defs>
  <rect width="64" height="64" rx="16" fill="#0b1522"/>
  <rect width="64" height="64" rx="16" fill="url(#a)" opacity="0.1"/>
  <rect x="12" y="14" width="40" height="28" rx="4" fill="#1a2740"/>
  <rect x="15" y="17" width="34" height="21" rx="2.2" fill="url(#b)"/>
  <rect x="18" y="21" width="14" height="1.6" rx="0.8" fill="#3ee0c2"/>
  <rect x="18" y="25" width="20" height="1.6" rx="0.8" fill="#6ea8ff" opacity="0.8"/>
  <rect x="18" y="29" width="11" height="1.6" rx="0.8" fill="#3ee0c2" opacity="0.55"/>
  <path d="M10 42.5h44c1.6 0 2.6.8 2.6 1.7v1c0 .4-.6.8-1.3.8H8.7c-.7 0-1.3-.4-1.3-.8v-1c0-.9 1-1.7 2.6-1.7Z" fill="#1a2740"/>
  <path d="M34 45c2-3.6 6-5.4 9.8-4.4 1.7.4 2.8 1.8 3 3.4l.5 3.2c.2 1-.5 1.8-1.5 1.9l-8.6.6c-1.2.1-2.1-.8-2.2-2l-.1-.7c-.1-.8.3-1.5 1.1-2Z" fill="url(#c)"/>
  <path d="M29 40c2.6-1.8 6.2-1.5 8.2.8 1.2 1.4 1.5 3.2.8 4.8l-1.2 2.8c-.5 1.1-1.7 1.6-2.8 1.1l-4.8-1.8c-1.2-.5-1.7-1.8-1.2-3L29 40Z" fill="url(#c)"/>
</svg>
